<?xml version="1.0" encoding="UTF-8"?><svg id="Layer_2" xmlns="http://www.w3.org/2000/svg" viewBox="0 0 361.52 108.99"><defs><style>.cls-1{fill:#231f20;}</style></defs><g id="Layer_1-2"><g><path class="cls-1" d="M48.46,86.63c-.23,.97,1.2,2.06-.14,2.79,.08,.39,.54,.59,.62,.97-.47,.35-.3,1.13-1.03,1.13-.18,.32-.29,.58,0,.82-.09,.43-.44,.79-.49,1.28-1.29,.91-2.11,2.28-3.59,3.1-.93,.57-1.68,1.37-2.54,1.89-.1,.27-.42,.54-.71,.59-.93-.72-1.43-1.71-2.22-2.65,.02-.11,.04-.22,.06-.33-1.06-.61-1.77-1.71-2.29-2.87-.67-.66-1.24-1.49-2.16-2.04-.52-1.16-1.59-2.05-2.65-2.76-.02-.17,.09-.45-.14-.45-.6,.12-.33-.67-.92-.54-.81-1.11-1.97-1.92-3.06-3.07-.77-.77-1.51-1.37-2.63-1.54-.28,.52-1.27,.8-1.29,1.49,.31,1.07,.57,1.79,1.28,2.61,.68,1.61,2.31,2.66,2.68,4.45,2.24,3.11,4.15,6.71,6.75,9.89-.03,.99-1.43,1.09-1.29,2.13,.35,.26,.07,.71,.09,.99-.66,.41-.73-.8-1.47-.22-.93,.76-1.22,1.82-2.38,2.33-.21,.4-.68,.65-1.05,1.01-.59,.37-.55-.57-1-.54-.92,.79-2.05,.99-2.97,1.91l-.16-.04c-1.05-.68-1.31-2.05-2.11-2.98-.57-1.46-2.3-2.18-2.27-3.94-1-.63-1.23-2.02-2.03-2.85,.12-.52-.56-.96-.71-1.52,.14-.64-.82-.31-.42-1.09-2.55-2.34-3.13-5.79-5.71-8.09-.03-.17-.06-.34-.09-.51-1.12-1.03-1.7-2.76-2.57-3.82-.81-1.71-1.82-3.64-2.46-5.5,.22-.79-.84-.6-.42-1.48-.44-.47-.24-.85-.56-1.35-.43-1.96-2.67-3.03-2.73-5.22,.18-.26,.51-.66,.6-1.03-.75,.09-1.71,2.25-2.29,1.02,1.35-1.44,2.74-2.99,4.22-4.59,.72-.44,1.16-1.02,1.74-1.62,3.1-2.4,5.85-5.52,8.87-7.99,.95-.29,1.31-1.49,2.38-1.77,.79-.15,1.01,.31,1.48,.59,2.13,.46,2.18,2.86,3.8,3.99,3.12,2.79,5.82,5.89,8.53,8.71,1.7,1.79,3.02,3.86,5.16,5.49-.12,.45,.45,.29,.55,.58,2.04,1.98,3.74,4.12,5.81,6.18,.05,.5,.57,.47,.74,.71,1.52,1.48,2.66,3.32,4.43,4.43,.09,.56,1.38,.6,.76,1.32Zm-10.04-6.34c-.14-.04-.29-.08-.43-.12-1.44-1.89-3.1-3.62-4.98-5.16-.48-1.08-1.89-1.54-2.11-2.74-1.64-.74-2.29-2.51-3.71-3.41-.3-.23-.18-.86-.69-.74-1.14-.85-2.32-2.21-3.48-3.22-.39-.98-1.31-1.36-1.97-2.21-.11,.02-.21,.05-.32,.07-.25-.81-.81-1.2-1.41-1.64-.08-1.4-1.82-1.5-2.26-2.71-.25,.01-.7,.09-.64-.32-.37-.63-1.15,.35-1.63,.56-1.16,1.48-2.47,2.45-3.9,3.93-.36,.21-.52,.81-1.02,.85-1.58,1.61-3.53,3.11-4.88,4.99,.22,.09,.58,.35,.37,.73,1.28,2.52,1.89,5.46,2.83,8.11,.56,1.35,1.41,2.71,2.1,4.04,1.85,3.59,3.95,7.24,5.94,10.71,.66,1.65,1.87,3.19,2.55,4.83,1.49,1.96,2.23,4.15,3.82,5.92,.95,.98,1.32,2.63,2.63,3.47,.49,.13,1.05-.41,1.59-.73,.72-.5,2.08-1.19,2.44-2.2-.07-1.6-1.15-2.77-1.44-4.26-.78-.85-.71-2.08-1.43-2.88-1.51-3.78-3.06-7.61-5.89-10.67,.51-.83-.58-1.51,.6-2.16,.52-.83,1.28-1.68,2.15-2.24,1.32-.18,2.21-1.58,3.64-1.45l.18,.22c.03,.91,1.1,1.05,1.37,1.95,1.97,2.11,3.69,4.33,5.81,6.5,1.48,1.67,2.94,2.9,4.57,4.35,.86,.51,1.08,1.72,2.16,1.58,1.82-1.11,2.73-3.1,4.58-4.16,.22-.08,.45-.16,.67-.24,.12-.54,.07-1.32-.64-1.41-2.44-2.67-4.61-5.09-7.15-8.13Zm-30.08,.93c.21,1.38,1.44,2.4,1.78,3.76,.89-.04-.16,1.24,.87,1.06,.52,1.39,1.49,2.56,2.09,3.87,.58,.34,.69,1.13,1.14,1.6,.04,.86,.87,1.46,1.37,1.98-.01-.28-.21-.49-.23-.78-1.45-2.2-2.9-4.69-4.26-6.98-.25-1.25-1.3-2.24-1.47-3.56-.53-.72-1.07-1.43-1.6-2.15-.02-.12-.03-.23-.05-.35-.37-.25-.49-.82-.73-1.09,.08,1.11,.62,1.69,1.09,2.63Zm22.86,18.7c.54,.48,.05,1.6,1,1.62,.51-.07-.11-.38-.02-.66-1.2-.95-1.52-2.6-2.39-3.85-.17-.72-.91-1.02-1.1-1.63-.91-.35-.44-1.83-1.47-2.06,1.04,2.25,2.61,4.52,3.99,6.58Zm-14.53-32.71c1.05,1.28,1.63,2.76,3.11,3.78,.34,.56,.36,1.66,1.33,1.61,.3,.97,2.52,.81,1.44,2.36-1.02,.56-1.83,1.53-2.49,2.37-.2,.65-.95,1.09-1.36,1.64-.41-.03-.85-.4-1.36-.25-.93-.91-.49-2.63-1.51-3.36-1.11-2.18-2.98-3.61-4.09-5.51,.08-1.59,.84-3.19,2.22-4.52,.4-.15,.9-.65,1.25-.38,.63,.6,.99,1.52,1.46,2.25Zm-1.84,.12c-.31,.26-.49,.5-.58,.86,.08,.87,1.2,.97,1.12,1.79-.27-.02-.55-.04-.82-.06-.14,1.06,.83,1.75,1.09,2.66,.18,.06,.37,.13,.55,.19-.21,.65,.65,.77,.69,1.11,.95,.52,.91,1.97,2.13,2.06,.24-.01,.44-.37,.49-.61,.65,.02,.64-.73,.8-1.14-1.61-.72-1.66-2.74-2.89-3.78-.57-.37-.5-1.37-1.24-1.49-.29-.51-.81-1.29-1.34-1.61Zm10.31-3.82c-1.99-2.29-4.48-3.73-6.5-6.18-.82,.27-.7-.74-1.43-.35,.82,.73,1.93,1.33,2.47,2.36,2.55,1.66,4.39,4.07,6.62,6.17,.25,.8,1.16,1.2,1.68,1.88,.8,.11,.48,1.26,1.33,1.43-.32-.57-.53-1.32-1.03-1.66l-.14-.34c-1.12-1.32-2.02-2.17-3.01-3.32Zm13.68,13.76c-1.02-.86-2.03-1.71-3.06-2.57,1.72,1.68,2.83,3.46,4.65,5.15,.14,.04,.29,.09,.43,.13-.36-1.08-1.81-1.53-2.03-2.71Zm7.09,8.64c-.72-.54-1.37-1.41-2.27-1.9,.37,1.07,1.59,1.41,1.92,2.43,.15,.06,.56,.03,.37,.35,.43,.58,.83,1.54,1.63,1.48-.28-.51-.55-1.03-.83-1.54-.53-.14-.63-.43-.82-.82Z"/><path class="cls-1" d="M81.1,71.52c-.06,.6,.29,1.3-.42,1.67-.81,.01-.34-1.2-1.24-.82-.83,.34-1.55,.72-2.17,1.46-.29-.06-7.24,3.21-7.71,4.04-1.52,.64-3.09,1.83-4.65,2.12-.94,.81-5.09,3.04-5.26,4.13-.74,.66-1.66,1.36-2.5,2.03,0,.44,.49,.28,.65,.52-.37,.34-.16,1.07-.84,1.1-.62-.18-.75-1.23-1.52-.61,.48,.54,1.45,1.09,1.11,2.03-.28,.46-.57,.04-.76-.09-.67-.67-1.18-1.55-2.18-1.81-3.79-3.49-4.06-3.39-4.05-3.39-.56-.49-2.08-2.32-2.54-2.52-.24-.18-.15-.51-.03-.78,.5-.2,4.13-3,4.81-3.53,.53-.45,1.24-1.1,1.66-1.72-.12-.96-.66-1.63-1.06-2.4-.26-.87-.73-1.76-1.36-2.38-.1-.97-1.07-1.63-1.13-2.53-.77-.19-3-4.75-3.73-4.87-.68-1.37-1.27-2.61-1.75-4.02-.35-.37-2.64-3.69-2.52-4.21-.63-.45,.1-1.78-1.26-1.41-.92,.69,.11,1.22,.31,1.87,.4,.6,1.15,1.23,.71,2.12-1.35-.32-.95-1.96-2.07-2.43,0-.17-.08-.29-.24-.36-.68,.19-1.04,1.21-1.68,.78-.32,.22-.44,.38-.48,.67,.21,.64,1.4,1.22,.66,1.99-.43,.21-.68-.15-.88-.27,.07-.4,.07-.75-.29-.94-.08-.12-.24-.36-.6-.2-.11,.69-.88,.43-1.35,.93-.24,0-.6-.02-.69-.31,.43-.39,.54-1.08,1.23-1.12,.2-.4-.2-.3-.29-.59,0,0-.46-2.21-3.01-6.32-.49-.54-1.06-1.37-1.01-2.19,.09-.41,1.04-.97,.47-1.1-.13,.11-.25,.23-.38,.34-.99,.15-2.2,1.42-2.98,.82,.13-.35-.37-.53,.13-.88,2.59-1.79,5.24-3.29,8.14-4.72,2.45-2.15,3.5-2.36,3.5-2.37,.77-.7,8.71-4.36,9.09-4.69,.87-.08,3.66-1.21,4.27-1.53,1.51-.98,3.36-.65,4.88-1.35,1.61,.55,.51,2.49,1.92,3.3,.55,1.91,1.54,3.42,2.27,5.23,.01,.24-.17,.49-.27,.71,.02,.02-.74,.06-6.68,5.17-.11,.39-.29,.83,.13,1,1.15,.51,1.1,1.94,1.71,2.84,.69,.85,1.04,2.22,1.94,2.88,.37,1.03,1.32,2.15,1.87,3.33,1.69,2.27,2.7,5.34,4.31,7.49l.15,.08s1.73-1.4,8.87-4.73c.36,.14,1.44,.56,1.57,.82,1.45,3.86,3.56,7.88,5.22,11.73Zm-14.77-5.34c.1,.35-1.63,2.34-2.03,2.49,0-.5-1.58-1.17-1.91-1.22,.08-.38-.4-.52-.7-.67-.1-.86-1.18-.97-1.32-1.73-.91-1.72-2.02-3.07-2.51-4.96-1.04-1.06-.42-2.68-1.57-3.75-.18-.48-1.51-3.12-1.89-4.15-.31-.9-3.13-5.18-2.76-5.48-.73-.49-.68-2.69-.05-2.97,.93-.12,1.82-.3,2.71-.87,1.53-1.19,2.94-2.61,4.51-3.77-.67-1.27-1.13-2.75-1.62-4.11-.35-.87-1.44-.22-2.22,.2-.31-.16-.47,.17-.78,.42-1.07,.26-10.07,4.43-10.2,5-1.8,.66-2.93,1.86-4.63,2.51-.9,.99-2.18,1.39-3.11,2.16-1.05,.77,.3,1.01,.16,1.7,.85,1.85,1.92,3.3,2.99,4.93,1.24-.41,2.47-.81,3.71-1.19,.07,.29,.35,.37,.63,.45,1.16,1.65,1.87,3.5,2.87,5.26,1,1.75,4.62,7.81,5.1,9.39,.57,.4,.51,1.3,1.16,1.65,.67,1.54,1.82,3.02,2.6,4.41,.64,.53,.8,1.88,1.94,1.76,.12,.84-3.45,4.29-3.75,4.6-.79,.36-1.13,1.38-1.95,1.85-.72,.32-.76,.7-.76,.7,1.76,1.49,3.3,2.97,5.04,4.49,.78-1.06,1.04-.97,1.04-.97,1.22-1,2.42-2.05,3.59-2.98,.08-.34,5.78-4.35,8.69-5.9,1.92-1.13,6.44-3.83,6.56-3.96-.11-1.08-.65-1.94-.93-3.01-.29-.01-1.52-2.7-1.9-3.97,.18-.58-.54-.85-.56-1.25-4.59,1.94-6.12,2.94-6.12,2.93Zm-21.87-9.23c.24-.84-.54-1.54-1.01-1.75,.55,.5,.15,1.62,1.01,1.75Zm-1.17-2.33c.04-.28-.03-.75-.39-.61-.2,.39,.31,.31,.39,.61Zm-.58-1.08c-.04-.18-.07-.35-.11-.53-.24,.16-.17,.62,.11,.53Zm16.01,5.39c.29,.5,.12,1.1,.33,1.64,.96,1.11,1.23,2.45,2.18,3.56,0-.51-.2-1.05-.65-1.29-.17-.82-.72-1.58-.85-2.34-.79-.29-.15-1.33-1.02-1.57Z"/><path class="cls-1" d="M115.56,33.96c-.14,.86-1.36,1.04-1.47,1.97,.97,2.5,3.32,8.8,3.85,9.47,.7,1.3,.61,3.19,1.77,4.3-.45,.87,.41,1.53,.9,2.07-.56,.75,.04,1.7-.42,2.5-1.26,1.24-10.04,4.89-10.26,5.72-.95-.07-1.27,.73-2.02,.76-.18,.14-.36,.27-.53,.41-.19-.31-.39-.63-.58-.94,.45-.92-.24-1.44-.45-2.28-1-.65-.79-1.78-1.45-2.7-.4-1.16-2.84-6.1-3.51-8-.65-.31-1.1-3.13-1.69-3.76-1.18-.2-1.98,.17-3.13,.59-.35,.82,.1,1.27,.29,2.04,.31,1.34,1.74,5.42,2.36,5.88,.79,1.4,1.12,3.5,1.69,5.06,.4,1.31,1.45,5.07,1.6,5.47-.1,.88,.78,1.86-.08,2.72-.57-.4-1.42-.38-1.53-1.11-.68-.2-1.39,1.7-1.82,.17-1.61,.49-9.64,3.99-10.78,4.98-.22,.23-.43,.46-.65,.7-.48-.09-.79-.74-1.19-.08-.14,.46-.38,.89-.88,1.14-.94-.67-1.86,.58-2.77,.38,.53-.58-.61-.5-.16-1.05,0,0,.55-.35,.61-1.9-.46-3.78-2.1-7.22-2.58-11.06-.5-.64-1.67-6.22-2.59-8.01-.32-.49,.38-1.29-.37-1.65,.3-.85-.64-1.61-.34-2.46-.9-.22-2.28-5.38-2.68-7.41-1.51-2.4-2.19-5.25-3.2-7.96,0,0-.42-3.53-2.79-1.65-.33-.24-.3-.65-.25-1,.62-.05,1.16-.53,1.48-1,.75-1.21-.5-2.3,.2-3.41,1.26-.09,.94,1.39,2.02,1.63,.63-.75,.95-1.51,1.26-2.28,.58-.41,.56,.31,1.07,.25,1.17-.52,5.78-2.48,6.51-3.06,4.47-2.07,8.75-3.24,13.35-4.92,.97-.19,6.42-1.47,8.13-1.5,3.52-1.03,13.51,1.74,13.89,3.17,0,0,1.96,1.15,4.34,6.88,.03,3.77-1.55,7.97-5.14,10.94Zm-32.99,27.49c.63,1.54,.93,3.15,1.64,4.64,.2-.73-.42-1.47-.47-2.17-.81-.73-.24-1.88-1.16-2.48Zm4.59,3.59c0,.4,.06,.92,.39,1.25l.15-.07c.3-.53-.27-.99-.54-1.18Zm19.3-48.73c-4.27-.96-8.84,1.29-13.26,1.21-3.15,.39-5.92,1.93-9.03,3.04-1.1,.94-6.61,3.15-7.69,4.1,.69,.65,.35,1.57,.6,2.41,.8,.68-.11,4.12,.93,4.61,.01,3.37,1.96,6.68,2.34,10.06-.03,1.74,1.91,6.56,2.23,7.28,.3,.89,.63,2.08,.91,3.14,.36,1.02,.95,1.71,.86,2.77,1.23,2.76,2.27,5.3,3.39,8.19,.64,.42,.66,1.28,1.18,1.84,.37-.17,1.19-.13,1.36-.76,2.37-.88,4.66-1.98,6.93-2.42-.73-.49-.72-5.14-2.64-10.34-.38-.73-.75-1.46-1.13-2.19-.07-1.83-1.23-3.39-2.11-4.9-.05-.6,.07-1.03,.43-1.56,.41,.07,.6,.31,.92,.42,1.45-.4,2.5-1.64,4.03-1.58,.24-.87,4.22-2.65,5.54-2.61,.53-.1,.58,.34,.81,.49-.14,.42-.04,1-.62,1.19,2.06,3.94,3.89,8.34,6.33,12.09,.86,1.31,1.4,2.73,2.31,3.95,.53,.06,1.08-.34,1.48-.69,.69-.52,1.81-.71,2.39-1.33,.38-.71-.62-.94-.47-1.59,.08-.02,.24-.07,.29-.16-.59-1.4-.82-3.06-1.45-4.3-.5-2.86-1.85-4.71-2.14-7.48-1.16-.86-.99-2.41-2.18-3.33-.15-.58-.29-1.17-.44-1.75,.43-.43,.91-.35,1.42-.2,.41-.5,.31-1.14,.83-1.59-.27-1.57,.85-3.17,.51-4.71,.45-1.4-.26-5.68,.66-6.53-1.42-3.79-1.05-4.57-1.04-4.57-.41-1.53-2.62-2.05-4.46-2.2Zm-8.69,45.79l-.2-.07c-.48,.11-.07,.49-.03,.79-.02,.16,.26,.21,.38,.08,1.11-.05,.61-1.09,.1-1.28-.08,.16-.16,.32-.25,.48Zm5.73-31.67c.15,1.39-.25,3.1-2.04,3.99-2.17,1.17-4.81,1.25-7.26,2.45-.41,.46,.13,1.41-1,1.45-1.1,.41-.32-1.11-1.33-.96-.85,.55-1.73,.28-2.57,.37-.13-.34-.09-.74,.34-1.14,.39,0,.84-.09,1.13-.36-.13-.34-.04-.6,.23-.93-.75-.18-.55-1.18-.94-1.96-.98-1.78-.11-3.73-2.54-4.58-.31-.81,.58-1.38,.99-1.91,.18-.07,.51-.27,.58-.06l.09-.03c.37-.37,.46-.94,1.08-1.17,.13,.08,.26,.16,.39,.24,1.49-.31,2.92-.82,4.31-.54,1.92-.51,3.44,.2,5.15,.33,1.38,.31,2.52,.86,3.55,1.67,.12,1.02,.27,2.1-.16,3.15Zm-8.71,15.6l-.22,.16c.37,.96,.74,1.93,1.1,2.89,.17,.12,.33,.23,.5,.35-.1-.42-.2-.85-.3-1.27-.77-.56-.48-1.51-1.09-2.13Zm3.9-16.76c-.5-.9-1.81-.15-2.61-.48-.16-.17-.4-.32-.73-.13-1.1-.61-2.67-.28-3.88-.07,.17,.47,.63,.92,.15,1.48-.08,.33,.32,.34,.57,.48,.33,1.08,.66,2.16,.99,3.24-.44,.39,.09,.51,.15,.94,.27,.21,.67-.02,1.06,0,1.18-.74,2.35-1.53,3.48-2.45,.96-.02,1.35-.84,2-1.21,2.45-1.03-.32-1.57-1.19-1.81Zm-3.61-1.96l.05,.14c.11,.04,.34,.11,.58-.05,1.29,.01,2.31,.43,3.59,.46-.76-1.12-2.91-.78-4.21-.55Zm11.66,25.4c-1.06-1.32-1.52-3.21-2.52-4.32,.47,2.43,2.14,4.22,3.13,6.39l.16-.05c.22-.91-1.14-1.06-.76-2.02Zm7.61-12.66c.13,.79,.37,1.62,.87,2.15l.16-.05c-.06-.31-.11-.62-.17-.92-.35-.28-.25-1.2-.87-1.18Zm3.99-13.27c-1.2,.82-1.12,2.21-1.75,3.34-.59,.6-.73,1.08-.93,1.73l.17-.05c1.52-1.89,2.78-3.91,2.81-6.07-.23,.2-.5,.64-.3,1.04Zm-3.26-6.9c-.18-.7-.85-1.42-1.23-2.14-.57,.07-.86-.67-1.39-.46,.46,.52,.93,1.05,1.39,1.57,.38,.35,.43,1.3,1.25,1.09l-.02-.07Z"/><path class="cls-1" d="M158.72,44.51c-1.04,.23-1.98,.68-3.02,.78-.86,.37-1.95,.05-2.69,.71-.76-.28-1,.55-1.73,.56-1.23,1.23-2.16,.34-3.19,2.29-.13,.24-.52,.36-.75,.39-.86-.39-.23-1.64-1.01-1.97,.09-1.1,.18-2.21-.3-3.3,.45-.94-1.33-8.32-2.33-9.12-.29-.83-.52-1.74-1.06-2.46,.35-.56-.45-.66-.83-.82-.9,.43-1.78-.67-2.6,.26-.03,.37-.54,.96,.03,1.24,.03,2.62,3.95,17.52,3.01,18.33-.36,.28-.7-.32-.86,.14,.07,.26,.14,.51,.21,.77-.3-.02-.6-.05-.9-.07,.28-.71-.36-1.18-.85-1.61-.7,.63-.06,1.47-.5,2.21-1.38-.05-1.84,.48-2.93-.56-.3-.31-.82-.06-1.22,.02-.24,.42,.03,1.39-.83,1.12-.1,.02-.21,.04-.31,.06-.4-.36-.91-.84-1.51-1.01-.72,.45-1.01-.15-1.62-.32,.02-.3-.06-.65-.22-.99,.03-.97,.46-2.46-.81-2.92-.54-.55,.19-1.44-.43-1.97,.16-1.58-.57-2.97-.56-4.52-.96-.45,.17-1.59-.94-1.93,.52-1.22-1-2.14-.81-3.29,.31-.21,.33-.51,.37-.74-.14,.15-.29,.31-.43,.46-.28-.46-.47-.93-.39-1.39-.05-.21,.06-.53-.11-.49-.26-.38-.1-.86-.45-1.23,0-.17-.02-.34-.02-.51-.23-.24-.31-.59-.29-.9,.17-.04,.34-.08,.52-.11,.24-.57-.49-1-.06-1.53-.87-.25-.26-1.2-.96-1.48-.11,.07-.21,.14-.32,.22,.42,.65,.4,1.39,.8,1.96,.02,.07-.02,.3-.21,.27-.49-.56-.21-1.35-.78-1.89,.55-.42-.43-.72-.25-1.12-.1-.17-.2-.35-.3-.52,.34,.29,.67,.52,.99,.74,.1-.22,.21-.44,.31-.66-.64,0-1.86-2.17-2.17-2.69,.54-.93-.81-1.52-.45-2.41-.21-1.8-1.31-4.13-1.89-5.85-.05-.21,.26-.57,.53-.64,1.43,.79,.66,2.51,1.73,3.45-.01,.37,.44,.71,.05,1.09,.36,.36,.41,1.01,.94,1.27,.85-1.73-1.76-5-1.48-6.75-1.2-.62,.17-1.88-.93-2.45-.12-.56-.97-1.26,.22-1.67,.83-.25,2.09,.14,2.61-.63,1.88-.41,7.16-.29,8.27-1.13,.87,0,3.22,.12,4.02,.36-.15,2.06,1.09,3.91,.85,5.99,.89,1.46,.69,3.17,1.46,4.58-.34,.78-.04,1.54,.09,2.32,.67,.19,1.35-.13,2.07-.17,1.01-1.24,.26-2.58,.62-3.95-.59-.21-.2-5.35-.31-6.14-.22-1.57-1.11-3.12-1.33-4.68,.2-.61,.03-1.82-.06-2.46,.5-.65-.92-.96-.05-1.74,1.35-1.38,13.57-4.24,14.76-3.02,.52,.39,0,1.08,.52,1.55-.19,.02-.39,.03-.58,.05,.3,1.28-.17,2.62,.23,3.88,.58,2.34,.7,4.93,1.08,7.28-.44,.32,.39,2.42,.41,2.78,.91,4.55,.14,9.45,.62,14.04,.3,2.58,.89,5.56,1.36,8.2,.18,1,1.92,6.64-.05,6.43Zm-30.73-7.41c-.05,.16-.43,.46-.38,.67,.37,.07,.24,.69,.69,.37-.31-.23-.07-.72-.31-1.04Zm-3.69-14.82l.09,.42,.27-.06c-.03-.14-.03-.58-.36-.36Zm8.02,24.73c.24,.76-.66,1.61,.15,2.32,.16-.03,.32-.07,.48-.1,.28-.65-.33-1.18-.44-1.75,.12-.24,.26-.35,.14-.54-.11,.02-.21,.04-.32,.07Zm-.98-5.16c-.3-.6,.02-1.55-.64-1.85,.01,.19,.02,.39,.03,.58-.32,.95,.36,2.13,.48,3.14,.09,.42,.29,.97,.75,1.17-.15-.34-.16-.78-.06-1.09-.19-.65-.38-1.29-.57-1.94Zm25.5-4.68c-.57-.74,.26-1.83-.54-2.27l-.07,.15c-.32,.25-.44-.1-.53-.17-.08-.86-.2-1.28-.36-2.06-.88-.21-.35-.98-.47-1.33-.51-.82-.08-1.8-.51-2.63,.89-.74-.31-2.29-.34-2.57,.48-.48,.42-2.14-.06-2.45-.1-.13,.65-1.73-.38-2.06-.05-.57-.44-1.69-.23-2.36-.48-1.18-.35-2.64-.83-3.83,.31-.61-.74-.94-.25-1.64-.48-2.05-1.28-4.29-.99-6.13-.69-.22-.28-.84-.42-1.26-.32-.33-.39-.97-.05-1.44-.61-.3-.09-.86-.32-1.2-1.77-.25-3.58-.7-5.35-.78-.69,.74-.38,1.64-.27,2.57-.2,1.48,.19,3.1,.1,4.63,.93,.61-.07,1.68,.76,2.3-.23,.39,.21,.92-.41,1.21-.06,1.02,.14,1.87-.1,2.84,.6,2.54-.03,4.8,.13,7.32,.05,1.08-1.75,.38-1.68,1.54-.18,.02-.34,.12-.53,.07-.44-1.18-2.2-.85-3.46-.8-.07,.16-.33,.2-.58,.31-.36-.53-1.12-.19-1.63-.03,.04,.21,.08,.5,.21,.7-.03,.37-.63,.54-.76,.86-.86-.29,.08-1.11-.71-1.49,.21-.91-.46-1.6-.68-2.37,.78-.79-.62-.92-.37-1.62,.04-1.91-1-3.63-1.25-5.56,.04-.3,.26-.7-.15-.85,.12-.97-.6-1.8-.08-2.69-.47,.08-.34-.31-.65-.4-2.26,.25-4.64-.04-7.09,.31-.53,.25,.18,.4,.13,.63,.19,1.87,.41,3.88,1.35,5.68,.3,1.92,.72,3.53,1.28,5.4-.11,.39-.17,.55,.1,.94,.34,2.58,1.2,5.05,1.64,7.68-.03,1.62,1.06,3.09,.79,4.76,.57,1.5,1.22,3.06,1.18,4.54,.86,2.18,.9,4.89,1.69,7.15,.13,1.07,1.29,.7,2.04,1.14,.54-.18,1.46,.38,1.64-.45,.07-.96,.25-1.8-.09-2.76,.07-.53-.41-.88-.16-1.36-.37-1.54-.08-3.21-.52-4.74-.24-.4-.43-1.9-.25-2.37,.51-.53-.5-2.32-.25-2.88-.59-.85-.48-2.18-1.08-3.1-.38-1.62,1.96-.42,1.59-2.03,2.13-.58,4.24-.11,6.28-.62,.88,.6,1.63,.28,2.63,.51,.67,.42,.53,1.38,.69,1.94,.46,.88,.85,1.85,.88,2.79-.19,1.19,1.03,2.05,.78,3.39,.82,.48-.06,1.53,.7,2.16-.24,1.41,.6,2.76,.59,4.06,.16,.63,.91,.03,1.35,.27,.2-.33,5.16-1.59,6.48-1.54,1.07,.05,.79-1.3,.34-1.76,.2-1.46-.33-2.93-.88-4.26Zm-21.98-25.49c.2,.62,.63,1.5,.65,2.16,.45-.73,.09-1.77-.65-2.16Zm.71,2.51c-.22,.4,.13,.78,.18,1.07,.31-.42-.12-.71-.18-1.07Zm8.34,17.37c-.15,.17,.13,.27,.16,.49,.36,.68,.53,1.31,.63,2.02,.57,.36,.07,1.08,.55,1.45,.1-1.18-.66-2.23-.39-3.44,.03-.44-.6-.57-.95-.52Zm5.57,14.29c-.8,.1-1.25-.78-1.23-1.29,.15-1.4-.52-2.69-.27-3.96-.46-.3-.24-1.2-.87-1.48-.08,.25-.16,.51-.24,.76,.32,.54-.15,1.4,.33,1.84-.32,.7,.37,1.48,.55,2.25-.04,.1-.08,.2-.12,.31,.45,.88-.11,1.61,.59,2.54,.16-.02,.22-.17,.36-.34,.17,.05,.55-.14,.75,.12,.13-.23,.35-.48,.4-.7l-.25-.04Z"/><path class="cls-1" d="M202.1,25.72c-.11,1.07-.4,2.06-.78,3.18-1.53,4.69-1.89,9.14-3.18,13.86-.94,1.21-.94,2.95-2.47,3.82-1.59,.57-5.5,1.6-5.99,1.87-1.72,.83-3.79,1.24-5.68,1.03-1.12,.52-5.92-.07-7.43-.12-.95,.29-1.74-.71-2.69-.41-.4-.51-4.23-1.21-5.23-2.17-.33-.35-1.68-1.73-2.42-1.84-.59-.55-.96-1.25-1.08-1.96,.2-.88-.97-1.32-.53-2.21-.71-1.04-1.25-5.7-1.06-6.86-.26-.13-.94-1.39-.37-1.93-.45-.33,.03-.94-.42-1.2-.03-1.95,.27-4.13,.17-6,.32-2.11,.74-4.22,.9-6.32,.89-.41-.32-.92,.65-1.4-.26-1.43,.78-2.71,.91-3.94,1.41-1.72,.75-4,2.3-5.71,.74-.53,.42-1.53,1.27-1.92,.55-.81,1.29-1.77,2.54-1.94,.18-.58,1.53-.32,1.81-.97,1.44-.38,3.18-.53,4.54-1.17,.68-.21,.39,.36,.97,.44,1.54,.01,2.72-.69,4.27-.73,2.42,.34,4.94,.08,7.19-.09,3.03,.12,10.11,2.78,10.58,3.72,1,.67,2.05,1.72,1.84,2.85,1.97,3.03,.64,6.51,1.02,9.88-.84,2.66-.53,5.66-1.61,8.23Zm-37.21-4.2c.6-.61,.83-1.34,.89-2.13,.32-.88,.84-1.55,1.26-2.36-.71-1.56,1.55-2.58,1.04-4.07-1.57,2.72-2.63,5.44-3.19,8.57Zm33.77-11.39c.38-1.05,.23-2.58-.84-3.61-.22-.04-.44-.08-.66-.13-1.42-1.49-3.85-1.08-5.83-1.62-.73-.76-2-.32-2.93-.87-.58,.11-4.79-.33-6.62-.42-.69,.19-5.11,2.75-6.22,4.13-1.69,1.38-1.67,3.18-2.85,4.78-.91,1.88-2.78,7.12-3.29,7.78,.12,1.36-1.46,6.96-1.65,8.49,.42,2.07-.18,4.11,.58,6.17,.01,2.52,1.02,4.86,1.17,7.24-.55,.52-.12,1.37,.07,1.94,.77,1.13,1.98,1.45,3.12,2.01,2.5,.53,4.98,.67,7.69,.85,.32,.29,2.63,.56,3.27,.37,.87,.39,1.84-.15,2.71,.17,1.32-.81,3.51,.11,4.1-1.58,.68-.61,1.71-1.4,1.76-2.12,.85-.45,.68-1.47,1.36-1.85-.13-.81,3.4-8.11,3.5-8.82-.2-.67,.37-1.27,0-1.88,.58-.74,.72-3.26,.51-3.86,.06-.72,.69-3.77,.77-4.63-.29-.75,.15-1.72,.04-2.45,.87-1.59,.32-3.59,1.01-5.11-.59-1.72,.21-3.31-.77-4.98Zm-27.21-.15c-.18,.36,.11,.65-.35,.94-.36,.73-.8,1.46-1.25,2.12-1.51,2.42-2.03,5.25-2.29,7.93h.09c-.11-.58,.41-.96,.49-1.46-.41-1.35,.82-2.48,1.06-3.71,.63-.45,.42-1.17,1.15-1.62,0-.29-.2-.64,.16-.8,.16-.8,1.26-1.4,1.15-2.33,.81-1.31,1.45-2.62,1.91-3.99-.94,.81-1.29,1.96-2.12,2.92Zm.36-5.7c-1.72,.47-2.25,1.86-2.78,3.02-.63,1.17-1.8,2.51-1.38,3.65,.81-.82,1.81-1.79,2.35-2.74,.27-.44,.93-.74,.63-1.24,.75-.38,.26-.94,.44-1.45-.03-1.3,2.18-.91,2.84-1.92-.67,.22-1.63,.02-2.1,.68Zm21.59,20.54c-.59,.83-.75,4.57-1.57,5.09-.32,2.21-1.88,4.07-1.92,6.23-.41,1.2-.96,2.11-1.19,3.4-.57,1.27-1.52,2.3-2.74,2.25-.93,.76-1.78-.64-2.7-.09-1.88-.2-3.92-.87-4.73-2.32-1.49-.51-1.15-3.97-1.66-4.47,.43-1.37-.26-2.52,.34-3.89,0-.94,.69-1.8,.26-2.59,0,0,.87-1.15,.63-3.67,.36-1.37,.55-2.88,.83-4.17,1.08-.49,.19-1.51,1.1-2-.35-.87,.83-1.36,.76-2.15,1.02-.99,1.14-2.43,2.09-3.49-.08-.79,1.14-1.05,.98-1.85,.96-.84,2-1.17,3.41-1.18,6.89-.26,6.92,3.43,7.99,5.15,.2,3.41-1.21,6.48-1.88,9.76Zm-1.87-10.22c.13-.57-.7-.76-1.05-1.14-.03-1.09-1.81-.82-2.05-1.83-1.38-.49-1.72,.94-2.2,1.49-.57,.48-.14,1.36-1.07,1.62,.02,1.87-1.75,3.19-1.7,4.99-1.82,4.13-1.89,8.74-2.65,12.98-.36,1.07,1.07,1.53,.38,2.6,.48,1.09-.21,2.23,.19,3.39,.31,.8,1.31,.6,1.88,.98v-.36c.7-.92,.58-2.36,1.45-3.2,.03-.79,.89-1.27,.84-2.06,.8-.83,.84-1.99,1.74-2.81,.29-.71,.33-1.5,.88-2.12,.21-.71,.5-1.42,.79-1.84,.33-1.26,.66-2.51,.99-3.77,.23-.85,.45-1.63,.76-2.48-.47-1.32,1.04-2.39,.48-3.65,.47-.26,.69-.82,.26-1.28,.76-.46-.68-.98,.09-1.51Zm-5.45,20.64c.12,1.09-1,1.91-1.21,3.05-.27,.49,.04,1.15-.22,1.65,1.54-1.24,.95-3.21,1.86-4.83-.14,.04-.29,.08-.43,.13Zm4.66-7.34c-.06,1.01-1.06,1.81-.95,2.97-1.43,2.45-1.72,5.17-2.6,7.8,.24,.16,.26-.13,.51-.12-.21-.8,.95-.75,.75-1.62,.69-.25,.05-1.01,.58-1.48-.16-1.81,1.28-3.18,1.38-4.9,.74-.82,.73-1.98,.87-2.91-.56-.83,1.11-.94,.37-1.71-.31,.65-.61,1.31-.91,1.97Zm2.53,17.42c-.89-.07-1.03,.86-1.46,1.19,.71,.19,1.1-.72,1.78-.09,.43-.33-.35-.75-.32-1.11Zm4.13-6.09c.15,1.1-1.4,1.68-.91,2.74,.49,.04,.69-.37,.72-.66-.09-.8,.53-1.25,.44-2.06l-.25-.02Zm3.86-30.59c-.18-.16-.35-.32-.53-.48-.29,1.06,.55,2.22,.15,3.41-.14,1.43,.09,2.9-.12,4.11,.29,.82-.35,1.77,.21,2.55,.15-1.51,1.02-2.87,.72-4.49,.64-1.67-.33-3.22-.44-5.11Z"/><path class="cls-1" d="M248.26,36.89c-.58,.65-1.71,.14-2.3,.87-.53,2.63-1.94,9.2-1.86,10.05-.11,1.47-1.21,3.02-.83,4.57-.85,.49-.48,1.51-.36,2.23-.87,.33-.89,1.46-1.7,1.88-1.74,.36-11.09-1.27-11.72-.69-.76-.56-1.46-.07-2.1-.45-.22,.02-.45,.04-.67,.06,0-.37,.01-.74,.02-1.11,.87-.53,.57-1.34,.85-2.17-.49-1.08,.3-1.93,.23-3.05,.29-1.19,.91-6.67,1.36-8.63-.38-.61,.76-3.22,.61-4.07-.88-.8-1.74-.92-2.93-1.18-.73,.5-.6,1.12-.85,1.88-.46,1.3-1.46,5.51-1.19,6.23-.1,1.6-.95,3.55-1.3,5.17-.37,1.32-1.51,5.05-1.6,5.47-.55,.69-.35,1.99-1.53,2.25-.26-.64-.98-1.09-.68-1.76-.46-.54-2.07,.69-1.61-.84-1.61-.45-10.14-1.8-11.6-1.59-.3,.08-.61,.16-.91,.24-.35-.34-.26-1.05-.94-.71-.36,.32-.79,.55-1.34,.48-.42-1.07-1.84-.52-2.48-1.17,.74-.21-.23-.75,.43-.97,0,0,.64,0,1.52-1.27,1.63-3.43,2.11-7.21,3.76-10.7-.07-.81,1.94-6.14,2.13-8.14,0-.58,1-.88,.57-1.59,.7-.56,.32-1.7,1.03-2.26-.63-.67,.98-5.75,1.73-7.68,.03-2.83,.99-5.61,1.6-8.43,0,0,1.53-3.2-1.42-2.89-.14-.38,.1-.71,.33-.97,.54,.29,1.24,.17,1.76-.04,1.26-.62,.81-2.21,1.98-2.76,1.09,.6,.04,1.68,.8,2.45,.93-.29,1.59-.77,2.26-1.24,.7-.03,.3,.56,.76,.78,1.25,.19,6.13,1.01,7.04,.91,4.83,.65,9.04,1.96,13.8,3.01,.92,.36,6.18,2.21,7.64,3.1,3.52,1.02,10.47,8.74,10.03,10.15,0,0,1.03,2.03-.04,8.14-2.01,3.19-5.63,5.87-10.26,6.44Zm-42.32,5.46c-.3,1.63-.91,3.15-1.12,4.79,.55-.51,.44-1.47,.76-2.08-.27-1.05,.81-1.71,.36-2.71Zm1.88,5.49c-.21,.33-.44,.81-.34,1.26l.16,.02c.53-.29,.3-.97,.19-1.28Zm42.29-30.72c-3.09-3.11-8.13-3.66-11.79-6.1-2.85-1.36-5.99-1.55-9.18-2.28-1.42,.2-7.19-.88-8.59-.66,.23,.92-.55,1.51-.79,2.35,.3,1-2.3,3.41-1.7,4.39-1.79,2.84-1.94,6.69-3.44,9.73-.96,1.45-1.92,6.55-2.04,7.33-.23,.91-.59,2.1-.92,3.14-.25,1.06-.13,1.95-.77,2.8-.45,2.99-.95,5.68-1.57,8.72,.3,.7-.14,1.44,0,2.18,.4,.06,1.06,.53,1.53,.09,2.44,.53,4.92,.83,7.05,1.68-.34-.8,2.15-4.72,3.34-10.13,.08-.82,.15-1.63,.23-2.45,.92-1.58,.79-3.51,.87-5.26,.28-.53,.61-.83,1.2-1.08,.3,.28,.33,.58,.54,.85,1.42,.44,2.96-.04,4.21,.83,.67-.6,4.95,.03,6.04,.77,.49,.2,.3,.6,.42,.85-.34,.28-.57,.82-1.16,.67-.39,4.43-1.23,9.12-1.2,13.59,.02,1.57-.29,3.05-.19,4.57,.41,.33,1.09,.29,1.62,.21,.86-.07,1.91,.38,2.73,.16,.71-.4-.01-1.13,.46-1.59,.08,.02,.24,.07,.33,.02,.26-1.5,.96-3.02,1.1-4.41,1.12-2.68,.98-4.96,2.23-7.45-.51-1.35,.47-2.56-.04-3.98,.19-.57,.38-1.14,.57-1.71,.59-.13,.96,.2,1.3,.6,.61-.2,.88-.8,1.55-.9,.62-1.47,2.43-2.21,2.98-3.7,1.13-.94,2.84-4.93,4.08-5.15,.85-3.96,1.58-4.41,1.58-4.41,.48-1.51-1.11-3.14-2.58-4.25Zm-31.91,33.94l-.13-.17c-.46-.16-.32,.38-.45,.65-.11,.13,.1,.31,.27,.27,.95,.55,1.1-.59,.77-1.02-.15,.09-.31,.18-.46,.28Zm21.81-23.62c-.62,1.25-1.88,2.47-3.86,2.27-2.45-.18-4.7-1.53-7.39-1.83-.59,.17-.64,1.26-1.61,.68-1.13-.24,.33-1.11-.59-1.52-1.01,0-1.59-.7-2.35-1.07,.07-.35,.32-.67,.89-.78,.32,.21,.75,.37,1.13,.31,.07-.35,.29-.53,.69-.66-.53-.55,.18-1.29,.27-2.15,.14-2.03,1.91-3.21,.34-5.23,.17-.85,1.23-.85,1.85-1.08,.18,.04,.56,.05,.52,.26l.09,.02c.5-.11,.89-.54,1.53-.4,.07,.14,.13,.27,.2,.41,1.42,.54,2.88,.88,3.9,1.86,1.88,.6,2.78,2.02,4.14,3.04,.99,1,1.66,2.08,2.08,3.31-.44,.92-.91,1.92-1.83,2.56Zm-15.68,8.48l-.27,.02c-.21,1.01-.42,2.02-.63,3.03,.08,.19,.15,.38,.23,.56,.14-.41,.29-.82,.43-1.23-.34-.88,.41-1.53,.24-2.38Zm12.26-12.04c.07-1.02-1.43-1.1-1.92-1.81-.04-.23-.17-.49-.55-.5-.59-1.1-2.08-1.67-3.21-2.14-.11,.49,.03,1.11-.67,1.33-.24,.24,.09,.46,.22,.71-.31,1.09-.61,2.18-.91,3.26-.58,.09-.2,.47-.38,.88,.11,.32,.57,.35,.89,.57,1.38,.02,2.79-.03,4.23-.2,.81,.49,1.59,.02,2.33,.06,2.61,.44,.57-1.49-.02-2.16Zm-1.97-3.59l-.03,.14c.07,.09,.22,.27,.51,.27,1.07,.7,1.71,1.6,2.76,2.31-.03-1.35-2.02-2.22-3.24-2.72Zm-3.89,27.66c-.18-1.68,.46-3.52,.21-4.99-.91,2.3-.47,4.7-.82,7.07l.16,.04c.67-.65-.38-1.51,.45-2.12Zm13.22-6.58c-.31,.73-.56,1.56-.42,2.28l.16,.05c.12-.29,.24-.58,.36-.87-.14-.42,.44-1.15-.1-1.46Zm10.54-9.03c-1.46,.04-2.14,1.26-3.29,1.87-.82,.19-1.21,.52-1.72,.96l.17,.05c2.31-.77,4.47-1.79,5.66-3.59-.31,.05-.77,.27-.82,.71Zm.97-7.57c.23-.68,.05-1.65,.12-2.46-.52-.24-.36-1.03-.93-1.13,.11,.69,.22,1.38,.32,2.07,.13,.5-.34,1.33,.47,1.59l.02-.07Z"/><path class="cls-1" d="M316.62,47.88c-.43,.84-1.18,1.64-1.65,2.71-.9,1.08-1.79,2.16-2.68,3.24-.15,.76-1.02,1.22-1.57,1.9-.43,1.35-1.73,2.14-2.78,2.92-.59,1.59-1.95,2.34-2.76,3.79-1.13,1.25-2.28,2.38-3.36,3.75-1.03,.28-1.12,1.59-2.11,1.99-.79,.43-.78,1.55-1.61,1.88-1.08,1.87-4.26,5.32-4.37,5.5-.38,.44-1.56,2.17-1.93,2.45-.54,1.02-1.6,1.63-1.9,2.89-.79-.91-1.19,.36-1.92,0-1.27-.28-4.06-1.77-4.34-2.1-.94-.32-5.07-3.05-6.01-3.54-1.1-.18-1.75-1.02-2.75-1.38-.31-.81-2.4-.27-2.69-.57-.69-.59,.09-1.08-.11-1.59,.73-1.08,.99-5.46,.74-6.7,.66-.4-.39-.91,.16-1.28-.63-.62-.16-1.6-.26-2.36-.02-.73-.38-2.97-.41-3.3-.02-1.36-.12-2.99-.16-4.36-.06-.9,0-3.4,.18-3.79,.33-.96-.13-1.87,.04-2.9-.16,.06-.31,.12-.47,.19-.37,.99-.75,1.98-1.12,2.97-.33,.09-2.74,5.56-2.98,6.32-.95,2.97-2.78,5.46-3.88,8.37-.92,.07-1.47,2.74-2.04,3.04-.38-.33-1.24-.15-1.49-.8-1.81-1.69-8.93-4.47-9.95-3.73-.85,0-.4-.76-.78-1.13-.31-.8,.52-1.42,.48-2.28,.7-.74,.84-1.84,1.26-2.76-.82-1.83,.44-3.67,.87-5.35,.57-.33,1.48-3.37,1.69-4.45,.8-1.47,1.41-3.4,2.13-4.9,.1-.02,.2-.03,.3-.05,.14-1.17,.72-2.27,1.85-3.01-.75-.81,.44-1.22,.52-1.96,.87-2.14,2.13-3.98,3.1-6.08-.21-1.31,1.33-1.74,1.18-2.94,1.1-1.9,2.63-3.56,3.01-5.95-.1-.19-.2-.38-.3-.57,.65-.91,.43-1.99,.78-2.94,.88-.68-.64-2.54,1.13-2.5,.7,.1,1.29,1.33,1.8,.52-.18-.92,1.05-.53,1.63-.38,.59-.16,1.28,.26,2.04,.48-.12,.03-.2,.23-.13,.34,.75,1.07,2.4,.41,3.4,1.36,3.43,1.09,6.51,3.92,10.2,3.95,.27,.12,.66,.46,1.03,.16,.79,.44,1.14,1.09,2.02,1.1,.5,1.04-.57,2.12,.62,3.09,.61,.78,.14,1.75,.21,2.5-.46,2.5-.4,5.02-.62,7.57,1.33,1.4,.51,3,.47,4.52-.16,.73-.16,1.54-.41,2.22,.35,1.4-1.15,7.37-1.7,7.81,.04,1.08-.59,1.89-.36,2.99,.13,.89-.37,1.44-.09,2.24-.53,.61,0,1.48-.07,2.17,.81-.38,1.15-1.18,1.72-1.85,.81-.54,1.13-1.68,1.85-2.43,.47-.48,.7-1.26,1.5-1.39,.79-1.62,2.44-2.68,3.08-4.39,.7-.1,.68-1.02,1.17-1.33,.87-2.32,2.01-4.57,3.19-6.47-.42-.64,.62-.72,.41-1.34,.04-.88,1.13-1.02,1.55-1.77,.3-.33,.46,.18,.68,.38-.4,1.51-1.73,2.67-2.25,4.19-.87,.17-.71,1.25-1.28,1.68,.22,.37-1.72,1.51-.95,2.27,1.15-.51,4.36-4.39,4.71-5.77,1.09-.54,1.62-1.65,2.24-2.53-.81-.38-.36-.96-.19-1.27,.76-.73,1.34,.85,2.23,.7,.67,.23,1.13,.24,1.69,.66,.37-.03,.59-.41,.48-.81-.01-.18,.01-.41,.26-.43,.4-.1,1.14-.16,1.39,.41,.22,.8-.48,1.39-.27,2.19,1.17,.96,2.45,1.92,3.56,2.95,.7,.01,1.48,.08,2,.76-.09,.88,.56,1.9,1.27,2.8-.15,.77-1.17,.7-1.11,1.51Zm-58.04-7.08c.69,.18,.17-.71,.8-.63-.6-.68,.45-1.22-.12-1.73-.57,.79-.71,1.66-1.36,2.42-1.35,2.65-2.36,5.43-3.5,8.08,.01,.46-.59,.63-.31,1.11-.56,.79-.56,2.02-1.09,2.75,.07,.79-.6,1.39-.35,2.17,.67-.37,.52-1.42,1.11-2.05,.36-.25,.03-1.06,.6-1.16-.51-.8,.47-1.29,.86-1.83,.29-1.28,1.36-1.95,1.55-3.19,.52-.42,.7-1.12,.81-1.7,.64-1.45,.65-2.76,1.01-4.24Zm-7.51,20.57c.03,.16-.2,.31-.17,.47-.02,.3,.28,.41,.55,.59,.33-.19,1.15,.13,1.13-.5-.28-.41-1.03-.23-1.51-.56Zm3.62-5.95c.77-.86,.32-2.03,.93-2.96l-.16-.06-.15,.4c-.52,.42-.69,1.36-.84,1.99-1.03,.62-.58,2.01-1.16,2.87-.43,.45-.17,1.17-.76,1.56,.1,.42-.55,1.02,.03,1.32,.4,.07,.41-.39,.51-.66,.87-.21-.08-1.41,.86-1.6,.13-.8,.64-1.92,.73-2.88Zm57.46-7.84c-.18-.63,.54-.85,.47-1.49-.51-.66-1.38-1.12-2.01-1.59-1.28-.36-2.08,.59-3.24,.64-.46,.57-1.32,.88-2.11,1.09-2.14,1.91-3.98,4.09-6.16,5.99-.13,.59-2.94,3.04-3.86,3.92-.91-.27-5.95,6.47-6.73,7.69-.36,.46-1.07,.31-1.39,.71-1.29,.19-1.11,2.51-2.88,2.02-1.41-.61-.06-4.38-.11-5.39,0-.57,.74-.83,.34-1.37,.49-1.86,.7-3.95,.9-5.88,.28-.34,.56-.68,.21-1.19-.94-.73-.04-1.48-.46-2.26,.45-1.47,.16-2.91,.51-4.43-.41-.61,.16-1.13-.15-1.77,.83-1.04-.13-2.24,0-3.37-.38-1.55-1.47-3.2-.88-4.67-.59-1.64-1.11-3.23-.97-4.91-.7-.8,.6-1.07-.1-1.87,.16-1.04-.61-2.18,.28-2.96,.33-.49-.74-.5-.92-.81-.93-1.28-1.6,.23-2.56-.5-1.23-1.09-2.67-1.46-3.97-2.4-1.92-.72-3.5-1.51-5.35-2.15,.26,1.72-2.13,2.26-2.12,4.12-2.66,4.76-4.32,10.14-6.55,15.15,.19,1-1,1.62-.63,2.61-.77,1.02-2.3,6.68-3.2,7.8,.06,.33-.1,.73-.23,1.07-.93,2.19-1.09,4.44-2.08,6.76-.34,.87-.17,2.02-.56,2.79,.91,1.67,3.46,1.84,5.01,2.58,1.19,.11,.67-1.59,1.21-2.23,.63-.44,.18-1.49,.97-1.86,.3-1.36,2.95-7.2,3.53-7.89,.33-.33,.31-.96,.8-1.22-.23-.8,.91-1.02,.76-1.79,.44-.13,1.61-3.54,1.98-4.64,.94-.38,2.5-3.31,2.48-4.42,.51-.02,1.73-3.1,3.19-3.41,.4,.02,.74-.07,1.17,.36,.43,.42,.08,.98,.07,1.45,.49,2.82,.09,8.66,.28,9.07,.78,2.35,.08,4.66,.2,7.03,.04,1.54,.33,3.12-.14,4.66,.46,1.99-.04,3.92,0,5.88-.16,.32-.71,.85-.18,1.28-.12,1.15-.34,2.5-.28,3.82,0,1.06-.39,1.99-.28,3.02,1.12,.84,2.62,.98,3.84,1.66,1.21,.17,2.29,1.11,3.5,1.47,.46,.85,1.35,.45,2.02,1.26,.71,.58,.72-.41,1.29-.41,.33-.72,1.23-.94,1.93-1.45,.36-.28,.59-.82,1.17-.81,.96-1.11,2.76-1.27,3.11-2.83,.7-.33,1.16-.9,1.5-1.62,.41-.51,3.83-3.22,4.49-4.08,.26-.26,4.51-5.34,5.24-6.83,.27-.43,2.04-2.72,2.49-3.79,1.25-.74,1.61-2.56,2.7-3.58,.98-.66,.94-2.22,2-2.99-.09-.4-.15-1.03,.45-1.08Zm-58.1,15.46c.19,.62,.92,.28,1.33,.36-.21-.78-.7-.43-1.33-.36Zm7.35,3.08c-.11-.02-.22-.04-.32-.06-.76-.88-2.11-1.21-3-1.81-.88,.03-1.48-1.07-2.47-.76,.18,.12,.36,.25,.55,.37,1.11,.05,1.85,.59,2.81,.99,.79,.41,1.35,1.35,2.43,1.5v-.23Zm24.73-41.82c-.75-.74-1.74-.48-2.47-1.28-.99,.03-1.87-.91-2.9-1.04-1.9-.58-3.51-2.12-5.56-2.33-.75,0-1.24-.89-1.85-.43,.18,.07,.34,.21,.43,.25,.9,.13,1.65,.66,2.36,1.26,3.18,1.07,6.42,2.79,9.5,4.12,.36,.16,.66-.25,.93,.11,.09-.2-.06-.82-.45-.68Zm-12.59,25.29c-.08-.04-.16-.07-.27-.04,.07,.27-.08,.6,.13,.77,.2-.23,.13-.5,.14-.73Zm.31,3.95c-1.08-.98,.21-2.12-.41-2.88l-.42,.92c.22,1.21,.26,2.58-.18,3.72,.6,.36-.24,.92,.35,1.28,.43-.91,.5-2.07,.65-3.03Zm12.37-18.45c.44-.91-.14-2.14,.2-3.1-.38-1.45,.48-3.05-1.29-4.34-.23-.43-.42-.03-.68,.08,.03,.88,.13,1.81-.14,2.63,.32,2.29,.74,4.56,1.55,6.79l.24-.28c-.21-.66,.16-1.2,.12-1.78Zm-10.95,25.67c.32-.65,.26-1.31,.47-1.94-.64-1.03-.04-1.7,.1-2.59-.06-1.87,.14-3.93,.31-5.75-.21-.81,.65-1.6-.23-2.25-.34,.32,.05,.74-.34,.95,.08,1.94-.27,3.93-.41,5.85-.2,.62,.16,1.27,0,1.83-.56,1.97-.42,4.03-.46,6.02-.02-.33,.3-.42,.48-.41-.34-.65,.14-1.05,.09-1.72Zm.06,7.59c.52-.3,0-.73,.3-1.14-.64-.4,.37-1.1-.54-1.16-.8,1.61-.88,3.59-1.36,5.44,.54,.19,.91,.71,1.59,.65,.2-1.27-.17-2.52,.01-3.8Zm22.44-21.15l.22-.2c-.16-.09-.38,.28-.22,.2Zm-16.42,29.36l.11,.14c.28,0,.46,.51,.78,.28-.28-.16-.6-.59-.89-.42Zm3.29,1.31c-.74-.19-1.7-.98-2.19-.77,.21,.62,1.1,.55,1.55,.9,.46,.18,.66,.64,1.17,.43-.1-.14-.2-.46-.52-.56Zm1.54,1.25l.14,.08c.08-.03,.17-.07,.25-.1-.13,0-.26,.01-.39,.02Zm4.83-4.32c-.64,1.04-2.12,1.07-2.61,2.21-.25,.1-.86,.15-.77,.63,.13,.42,.52,.73,.87,.95,.51-.2,1.05-.45,1.1-1.01,.22-.15,.44-.29,.66-.44,.46-.9,1.52-1.52,1.58-2.41-.22,.2-.62,.04-.84,.08Z"/><path class="cls-1" d="M357.31,77.95c-.77,.05-1.54,.1-2.31-.14-1.86,.3-4.15-.09-6.06,.2-3.23-.36-6.14-.08-8.99-.1-1.44,.45-2.91-.36-4.34-.17-.39,.9-.81,1.96-1.54,2.66-1.8,1.78-4.19,2.85-5.46,5.18-.42,.78-1.17,1.36-1.74,2.02-2.26,2.9-4.97,5.51-7.51,8.07-.91,.27-.97,1.26-1.76,1.53-.62,.99-1.51,2.03-2.24,3.01-.61,.33-1.05,1.09-1.93,.72-1.34-.48-2.27-1.82-3.32-2.76-.92-.84-2-1.34-2.75-2.39-.56-.35-1.15-.81-1.72-1.16-.7-.44-.26-1.29-1.01-1.68-.55-.78,.41-1.23,.69-1.74,1.01-.23,.97-1.43,2.01-1.55,.24-.45,.83-.54,1-1.05,.82-.1,.71-1.09,1.58-1.24,.02-1.16,1.55-1.18,1.63-2.29,.38-.07,.32-.57,.57-.75,.98-.43,.9-1.76,2.02-2.08-.13-.55,.59-.63,.86-.98,.39-1.24,1.87-1.56,2.19-2.86,.74-.52,.93-1.37,1.7-1.78,.18-.68,1.08-.81,.88-1.6,.87-1.14,1.65-2.46,2.18-3.77,.47-.46,.06-1.31,.85-1.43,1.23-1.15-.66-3.21,0-4.59-.14-.29-.2-.69-.47-.97,.18-.41-.23-.98-.13-1.44-.1-.13-.2-.27-.3-.4,.04-.87-.76-2.06-.57-2.99-.54-.74-.12-1.5-.63-2.12,.1-.81-.82-1.71-.57-2.42,.29-1.11-1.32-2.05-.84-3.11-.33-.57-.53-1.14-.46-1.61,.36-.54,1.3,.18,1.67-.35,.65-.08,1.63,.42,1.96-.23,.25,0,.49-.01,.74-.02,1.11,.33,2.34,1.01,3.29,.89,.49,.52,1.4,.64,1.97,.7,1.85,.54,3.8,.62,5.81,1.51,.24,.18,.49,.37,.73,.55,.46,2.61-.31,4.93-.41,7.33-.02,1.81-.78,3.42-.35,5.24,.1,.35,.11,.65-.11,.93-.44-.08-.51,.33-.45,.56,.06,.24,.09,.35,.12,.47,.26,.3,.58-.09,.74,.33,1.2,.24,1.78-.78,2.8-.78,2.34-.97,5.08-1.11,7.69-1.34,1.62-.31,2.61-2.42,4.86-.74,.38,.04,.73,.26,1.16,.25,1.59,1.03,1.93,2.98,3.52,4.16,1.27,1.08,2.19,2.54,3.49,3.59,.88,.75,1.25,2.01,2.4,2.63,.45,.44,1.1,.68,1.04,1.33-.38,1.56-2.91,.55-4.2,.7Zm-.45-2.95c-.57-1.35-1.83-2.44-2.84-3.48-1.01-.74-1.85-1.81-2.9-2.18-.05-1.02-1.05-.37-1.59-.85-.74,.21-1.48-.64-2.16-.18-.77-.67-.77,.57-1.54-.1-1.57,.25-3.3,.57-5.03,.6-.95,.04-1.93,.44-3.06,.25-.74,.42-1.71,.36-2.62,.54-1.03,.18-2.14,.76-3.2,.08-.51-1.06-.02-2.14-.39-3.26,.42-.68-.21-1.63,.16-2.26-.5-1.12-.45-1.99-.79-3.17,.71-.27-.65-.77-.31-1.23-.38-.65,.06-1.22-.45-1.88-.07-.23,.17-.23,.26-.35-.65-1.12-.74-2.35-.96-3.41-.6-.53-1.38-.66-1.91-.95-1.1-.18-2.08-.87-3.26-1.09-.57,0-1.14,.02-1.71,.03,.48,1.91,.37,3.78,.68,5.68,.24,1.68,.98,3.29,1.43,4.97,.34,1.33,1.05,2.95,1.21,4.16,.32,.52-.1,.92,.26,1.38-.64,1.14-.18,2.87-1.39,3.66-.25,1.09-.99,1.88-1.51,2.85-.15,.34-.36,.91-.84,1.08,0,.91-.96,1.08-1.28,1.93-1.21,.51-1.32,1.98-2.67,2.39-.27,1.07-1.45,1.43-1.88,2.56-.57,.01-.6,.63-1.08,.81-.66,.85-1.55,1.71-2.26,2.62-1.48,2.05-3.06,4.37-4.35,6.56,.26,.21,.2,.7,.61,.85,.66,1.07,1.65,1.96,2.63,2.76,.53-.12,.4-.89,.8-1.11,.33,0,.63-.23,.7-.45,1.02-1.12,2.03-2.34,2.92-3.57,.45,0,.54-.39,.84-.62,.41-.5,.69-1.11,1.41-1.17,1-.39,.94-1.84,1.99-2-.05-.22,.21-.39,.37-.44,.3-1.06,1.47-1.22,1.76-2.28,.81-.27,.87-1.06,1.56-1.32,.48-.73,1.5-1.1,1.72-1.94,.55-.38,1.27-.81,1.64-1.54,.23-.28,.34-.56,.79-.66,.22-.85,1.32-1.15,1.77-1.99,.23-1.02,1.26-.63,1.6-1.48,.97-.12,.7-1.29,1.75-1.35,.41,.25,1,.46,.89,1.03,.47,.49,.74-.13,1.23,.19,2.23-.08,4.35-.44,6.58-.28,1.23-.35,2.63,.62,3.75,.28,1.32,.13,2.65,.27,3.97,.43,.62,.08,.99-.16,1.53,.15,1.28-.18,2.64-.27,4.01-.36,.57-.15,1.42-.13,2.04-.03-.02-.42-.5-.68-.89-.87Zm-24.78-19.7c-.15-.47-.43-.77-.96-.9,.08,.18,.15,.35,.23,.53,.51,.83,.15,1.64,.57,2.41,.19-.58,.01-1.35,.16-2.05Zm-22.9,39.54c-.22-.26-.63-.41-.63-.68-.66-.24-.24-1.19-1.01-1.15-.24-.92,.79-1.03,.99-1.69,.1-.04,.21-.08,.31-.12,.22-.47,.44-.94,.66-1.4-1.06,1.09-2.37,1.99-3.07,3.45,.66,.78,1.53,1.01,2.28,1.68,.04,.13,.08,.25,.13,.38,.68,.08,.96,.67,1.48,1.09,.17-.88-1.04-.84-1.12-1.54Zm8.85-1.05c1.81-1.49,3.15-3.47,4.42-5.41l-.02-.11-.16,.05c.11,.56-.69,.27-.83,.71-3.01,2.08-5.4,4.87-7.66,7.86-.2,.11-.54,.39-.38,.72-.38,.06-.44,.66-.92,.45,.14,.18,.28,.36,.42,.54,.17-.33,.67-.28,.53-.77,.52-.23,.93-.72,1.45-.95-.17-.99,1.26-1.11,1.79-1.88,.13-.02,.26-.04,.38-.05-.27-.88,1.22-.38,.97-1.16Zm-.67,2.26c.36-.83,1.39-.71,1.6-1.76l-.2,.11c-1.29,.99-2.4,2.31-3.6,3.47-.31,.5-1.01,.94-1.06,1.65,.36-.17,.79-.28,.84-.61,.13-.55,.85-.22,.83-.72,.61-.71,.64-1.81,1.59-2.14Zm7.24-7.45c.97-.03,.66-1.33,1.42-1.53,.19-.5,.91-.64,1-1.32,.63,.25,.26-.73,.75-.88-.16-.23,.02-.45,.33-.38,.26-.16,.12-.56,.09-.68-1.59,1.87-3.49,3.56-4.87,5.6-.64,.21-.68,.94-1.21,1.15-.79,.94-1.55,2.37-2.49,3.08,.62,.34,.4-.61,.77-.77,.39-.05,.69-.27,.79-.66,.78-.1,.95-.99,1.69-1.3,.61-.71,1.17-1.37,1.73-2.31Zm9.55-10.78c-.83,.53-1.38,1.47-2.06,2.12-.59,.54-1.52,1.07-1.61,1.75,.42-.21,.82-.24,.96-.69,1.13-.45,1.74-1.45,2.58-2.15-.08-.35,.32-.67,.13-1.03Zm12.78-11.04c-.58-.12-1.14,.06-1.37,.33,.66,.48,.9-.26,1.54,.1,.59-.06,1.49,.16,2.09,.11,.45,.11,.9,.22,1.22,.02-1.17-1.33-2.34-.15-3.47-.57Z"/></g></g></svg>